# xmcd CD database file
#
# Track frame offsets:
#	150
#	10179
#	24645
#	37542
#	52698
#	63004
#	78145
#	91373
#	104806
#	118329
#	132947
#	147608
#	161748
#	175690
#	189592
#	201456
#
# Disc length: 2881 seconds
#
# Revision: 2
# Processed by: cddbd v1.5.2PL0 Copyright (c) Steve Scherf et al.
# Submitted via: CDex 1.51
#
DISCID=d40b3f10
DTITLE=Pearl Bailey - Personality  (recorded 1944-1950)
DYEAR=2001
DGENRE=Jazz
TTITLE0=St. Louis Blues
TTITLE1=A Womans's Prerogative
TTITLE2=Who
TTITLE3=Tired
TTITLE4=Don't Ever Leave Me
TTITLE5=Legalize My Name
TTITLE6=Saturday Night Fish Fry
TTITLE7=Baby, It's Cold Outside
TTITLE8=Ain't She Sweet
TTITLE9=The Hucklebuck
TTITLE10=Personality
TTITLE11=Get It Off Your Mind
TTITLE12=Here You Come With Love
TTITLE13=Frankie And Johnny
TTITLE14=They Didn't Believe Me
TTITLE15=That's Good Enough For Me
EXTD=YEAR: 2001
EXTT0=
EXTT1=
EXTT2=
EXTT3=
EXTT4=
EXTT5=
EXTT6=
EXTT7=
EXTT8=
EXTT9=
EXTT10=
EXTT11=
EXTT12=
EXTT13=
EXTT14=
EXTT15=
PLAYORDER=
